<svg width="115" height="115" viewBox="0 0 115 115" fill="none" xmlns="http://www.w3.org/2000/svg">
<path fill-rule="evenodd" clip-rule="evenodd" d="M98.9001 58.4802C98.9001 55.4222 98.6257 52.4819 98.1161 49.6591H57.5002V66.3407H80.7092C79.7095 71.7313 76.6712 76.2986 72.1038 79.3566V90.177H86.0411C94.1956 82.6694 98.9001 71.6137 98.9001 58.4802Z" fill="#4285F4"/>
<path fill-rule="evenodd" clip-rule="evenodd" d="M57.5 100.625C69.1437 100.625 78.9057 96.7634 86.0409 90.177L72.1037 79.3566C68.242 81.9441 63.3023 83.473 57.5 83.473C46.2679 83.473 36.7608 75.887 33.3696 65.6938H18.9619V76.8671C26.0579 90.9611 40.642 100.625 57.5 100.625Z" fill="#34A853"/>
<path fill-rule="evenodd" clip-rule="evenodd" d="M33.3695 65.6938C32.507 63.1063 32.017 60.3423 32.017 57.5C32.017 54.6577 32.507 51.8938 33.3695 49.3063V38.133H18.9618C16.0411 43.9548 14.3749 50.5412 14.3749 57.5C14.3749 64.4588 16.0411 71.0452 18.9618 76.8671L33.3695 65.6938Z" fill="#FBBC05"/>
<path fill-rule="evenodd" clip-rule="evenodd" d="M57.5 31.527C63.8315 31.527 69.5162 33.7029 73.9855 37.9762L86.3545 25.6071C78.8861 18.6483 69.1241 14.375 57.5 14.375C40.642 14.375 26.0579 24.039 18.9619 38.133L33.3696 49.3063C36.7608 39.1131 46.2679 31.527 57.5 31.527Z" fill="#EA4335"/>
</svg>
